grf
version=1
nRows=9
nColumns=37
inDegrees=no
endheader
time	ground_force_1_vx	ground_force_1_vy	ground_force_1_vz	ground_force_1_px	ground_force_1_py	ground_force_1_pz	ground_moment_1_mx	ground_moment_1_my	ground_moment_1_mz	ground_force_2_vx	ground_force_2_vy	ground_force_2_vz	ground_force_2_px	ground_force_2_py	ground_force_2_pz	ground_moment_2_mx	ground_moment_2_my	ground_moment_2_mz	ground_force_3_vx	ground_force_3_vy	ground_force_3_vz	ground_force_3_px	ground_force_3_py	ground_force_3_pz	ground_moment_3_mx	ground_moment_3_my	ground_moment_3_mz	ground_force_4_vx	ground_force_4_vy	ground_force_4_vz	ground_force_4_px	ground_force_4_py	ground_force_4_pz	ground_moment_4_mx	ground_moment_4_my	ground_moment_4_mz
      4.03000000	      0.00000000	     -0.00000000	      0.00000000	      0.00000000	      0.00000000	      0.00000000	      0.00000000	      0.00000000	      0.00000000	     -7.42483377	      8.00647926	   -673.12072754	   -237.58634363	  -1148.97371770	      0.00000000	      0.00000000	      0.00000000	    752.36976108	      0.00000000	     -0.00000000	      0.00000000	      0.00000000	      0.00000000	      0.00000000	      0.00000000	      0.00000000	      0.00000000	    -34.45192197	     16.00936428	     75.45471191	    609.45325749	   -564.98400558	      0.00000000	      0.00000000	     -0.00000000	    -22.36140049
      4.04000000	      0.00000000	     -0.00000000	      0.00000000	      0.00000000	      0.00000000	      0.00000000	      0.00000000	      0.00000000	      0.00000000	     -7.24154854	      3.85841250	   -669.27600098	   -236.09368799	  -1146.68920400	      0.00000000	      0.00000000	      0.00000000	   1397.55962651	      0.00000000	     -0.00000000	      0.00000000	      0.00000000	      0.00000000	      0.00000000	      0.00000000	      0.00000000	      0.00000000	    -34.62042861	     15.78717248	     76.13590240	    602.72318153	   -560.45581760	      0.00000000	      0.00000000	     -0.00000000	    -45.52462485
      4.05000000	      0.00000000	     -0.00000000	      0.00000000	      0.00000000	      0.00000000	      0.00000000	      0.00000000	      0.00000000	      0.00000000	     -6.56982899	     -1.67782044	   -668.88146973	   -235.87920015	  -1144.74068876	      0.00000000	      0.00000000	     -0.00000000	   1995.18863466	      0.00000000	     -0.00000000	      0.00000000	      0.00000000	      0.00000000	      0.00000000	      0.00000000	      0.00000000	      0.00000000	    -35.06238034	     16.11530610	     75.45471191	    606.94999681	   -565.11208302	      0.00000000	      0.00000000	     -0.00000000	    -28.81637225
      4.06000000	      0.00000000	     -0.00000000	      0.00000000	      0.00000000	      0.00000000	      0.00000000	      0.00000000	      0.00000000	      0.00000000	     -5.55218029	     -6.83137608	   -669.91955566	   -235.50058136	  -1143.38470396	      0.00000000	      0.00000000	     -0.00000000	   2183.86878348	      0.00000000	     -0.00000000	      0.00000000	      0.00000000	      0.00000000	      0.00000000	      0.00000000	      0.00000000	      0.00000000	    -34.96206903	     16.37990494	     76.17778778	    604.21571278	   -559.28035105	      0.00000000	      0.00000000	     -0.00000000	   -308.14824594
      4.07000000	      0.00000000	     -0.00000000	      0.00000000	      0.00000000	      0.00000000	      0.00000000	      0.00000000	      0.00000000	      0.00000000	     -5.14206409	    -11.63326073	   -670.00354004	   -234.53227804	  -1141.40273990	      0.00000000	      0.00000000	      0.00000000	   2594.57905862	      0.00000000	     -0.00000000	      0.00000000	      0.00000000	      0.00000000	      0.00000000	      0.00000000	      0.00000000	      0.00000000	    -34.89427423	     16.43142242	     75.08229065	    606.24675113	   -564.23386766	      0.00000000	     -0.00000000	     -0.00000000	     -1.06735114
      4.08000000	      0.00000000	     -0.00000000	      0.00000000	      0.00000000	      0.00000000	      0.00000000	      0.00000000	      0.00000000	      0.00000000	     -5.80950594	    -15.94893551	   -672.49743652	   -233.77973712	  -1140.45505245	      0.00000000	      0.00000000	      0.00000000	   3007.04918221	      0.00000000	     -0.00000000	      0.00000000	      0.00000000	      0.00000000	      0.00000000	      0.00000000	      0.00000000	      0.00000000	    -34.91643381	     16.37447662	     75.47639465	    603.18878071	   -563.60593547	      0.00000000	      0.00000000	     -0.00000000	   -193.42397386
      4.09000000	      0.00000000	     -0.00000000	      0.00000000	      0.00000000	      0.00000000	      0.00000000	      0.00000000	      0.00000000	      0.00000000	     -7.03668547	    -18.59544945	   -673.86730957	   -232.11893294	  -1139.10489028	      0.00000000	      0.00000000	      0.00000000	   3155.31515137	      0.00000000	     -0.00000000	      0.00000000	      0.00000000	      0.00000000	      0.00000000	      0.00000000	      0.00000000	      0.00000000	    -34.88321162	     16.26764793	     76.17853546	    607.58955762	   -559.97753824	      0.00000000	      0.00000000	      0.00000000	   -400.39409626
      4.10000000	      0.00000000	     -0.00000000	      0.00000000	      0.00000000	      0.00000000	      0.00000000	      0.00000000	      0.00000000	      0.00000000	     -8.19627094	    -20.51107788	   -671.81414795	   -231.10093420	  -1137.45161231	      0.00000000	      0.00000000	      0.00000000	   3212.13780033	      0.00000000	     -0.00000000	      0.00000000	      0.00000000	      0.00000000	      0.00000000	      0.00000000	      0.00000000	      0.00000000	    -34.88313534	     16.10456772	     77.16503906	    599.40241011	   -560.04734467	      0.00000000	      0.00000000	     -0.00000000	   -145.37360362
      4.11000000	      0.00000000	     -0.00000000	      0.00000000	      0.00000000	      0.00000000	      0.00000000	      0.00000000	      0.00000000	      0.00000000	     -8.90422440	    -23.16830063	   -674.90466309	   -229.35371406	  -1138.39008674	      0.00000000	      0.00000000	      0.00000000	   3272.64144236	      0.00000000	     -0.00000000	      0.00000000	      0.00000000	      0.00000000	      0.00000000	      0.00000000	      0.00000000	      0.00000000	    -34.72705699	     16.26723402	     77.47058868	    598.89789084	   -559.67974148	      0.00000000	      0.00000000	     -0.00000000	   -199.46593151
